<mxfile host="app.diagrams.net" modified="2022-11-04T10:17:22.199Z" agent="5.0 (Windows NT 10.0; Win64; x64) AppleWebKit/537.36 (KHTML, like Gecko) Chrome/107.0.0.0 Safari/537.36 Edg/107.0.1418.26" etag="tQraRQqdDLVhTNLJ9XpS" version="20.5.1" type="github">
  <diagram id="C5RBs43oDa-KdzZeNtuy" name="Page-1">
    <mxGraphModel dx="883" dy="490" grid="1" gridSize="10" guides="1" tooltips="1" connect="1" arrows="1" fold="1" page="1" pageScale="1" pageWidth="827" pageHeight="1169" math="0" shadow="0">
      <root>
        <mxCell id="WIyWlLk6GJQsqaUBKTNV-0" />
        <mxCell id="WIyWlLk6GJQsqaUBKTNV-1" parent="WIyWlLk6GJQsqaUBKTNV-0" />
        <mxCell id="JoYVowdMrAnlJrP38-PI-4" style="edgeStyle=orthogonalEdgeStyle;rounded=0;orthogonalLoop=1;jettySize=auto;html=1;entryX=0;entryY=0.5;entryDx=0;entryDy=0;" edge="1" parent="WIyWlLk6GJQsqaUBKTNV-1" source="JoYVowdMrAnlJrP38-PI-1" target="JoYVowdMrAnlJrP38-PI-3">
          <mxGeometry relative="1" as="geometry">
            <Array as="points">
              <mxPoint x="170" y="75" />
              <mxPoint x="170" y="110" />
            </Array>
          </mxGeometry>
        </mxCell>
        <mxCell id="JoYVowdMrAnlJrP38-PI-1" value="1 甲烷" style="rhombus;whiteSpace=wrap;html=1;" vertex="1" parent="WIyWlLk6GJQsqaUBKTNV-1">
          <mxGeometry x="70" y="50" width="80" height="50" as="geometry" />
        </mxCell>
        <mxCell id="JoYVowdMrAnlJrP38-PI-5" style="edgeStyle=orthogonalEdgeStyle;rounded=0;orthogonalLoop=1;jettySize=auto;html=1;entryX=0;entryY=0.5;entryDx=0;entryDy=0;" edge="1" parent="WIyWlLk6GJQsqaUBKTNV-1" source="JoYVowdMrAnlJrP38-PI-2" target="JoYVowdMrAnlJrP38-PI-3">
          <mxGeometry relative="1" as="geometry">
            <Array as="points">
              <mxPoint x="170" y="135" />
              <mxPoint x="170" y="110" />
            </Array>
          </mxGeometry>
        </mxCell>
        <mxCell id="JoYVowdMrAnlJrP38-PI-7" value="大化反 1" style="edgeLabel;html=1;align=center;verticalAlign=middle;resizable=0;points=[];" vertex="1" connectable="0" parent="JoYVowdMrAnlJrP38-PI-5">
          <mxGeometry x="0.4774" relative="1" as="geometry">
            <mxPoint x="-6" as="offset" />
          </mxGeometry>
        </mxCell>
        <mxCell id="JoYVowdMrAnlJrP38-PI-2" value="1 苯" style="rhombus;whiteSpace=wrap;html=1;" vertex="1" parent="WIyWlLk6GJQsqaUBKTNV-1">
          <mxGeometry x="70" y="110" width="80" height="50" as="geometry" />
        </mxCell>
        <mxCell id="JoYVowdMrAnlJrP38-PI-3" value="二甲苯" style="rounded=1;whiteSpace=wrap;html=1;arcSize=7;" vertex="1" parent="WIyWlLk6GJQsqaUBKTNV-1">
          <mxGeometry x="250" y="100" width="60" height="20" as="geometry" />
        </mxCell>
      </root>
    </mxGraphModel>
  </diagram>
</mxfile>
